<svg width="100" height="25" viewBox="0 0 100 25" fill="none" xmlns="http://www.w3.org/2000/svg">
<path d="M29.4484 19.2733C29.2958 19.2733 29.1709 19.2248 29.0738 19.1279C28.9766 19.0309 28.9281 18.9063 28.9281 18.754V5.25313C28.9281 5.10081 28.9766 4.97619 29.0738 4.87926C29.1709 4.78233 29.2958 4.73386 29.4484 4.73386H35.6307C36.7825 4.73386 37.7261 4.90003 38.4616 5.23236C39.1971 5.56469 39.7383 6.03548 40.0852 6.64475C40.446 7.25402 40.6265 7.96715 40.6265 8.78412C40.6265 9.29646 40.5293 9.74649 40.335 10.1342C40.1546 10.5219 39.9257 10.8404 39.6481 11.0897C39.3844 11.3389 39.1277 11.5258 38.8779 11.6505C39.4191 11.8997 39.891 12.3151 40.2934 12.8967C40.7097 13.4644 40.9179 14.1429 40.9179 14.9322C40.9179 15.8046 40.7236 16.5662 40.335 17.217C39.9465 17.8678 39.3706 18.3732 38.6073 18.7332C37.8441 19.0932 36.9143 19.2733 35.818 19.2733H29.4484ZM32.2377 16.8431H35.4225C36.1025 16.8431 36.616 16.6562 36.9629 16.2823C37.3098 15.8946 37.4833 15.4376 37.4833 14.9114C37.4833 14.3714 37.3029 13.9214 36.9421 13.5613C36.5952 13.1875 36.0886 13.0005 35.4225 13.0005H32.2377V16.8431ZM32.2377 10.6119H35.2352C35.8874 10.6119 36.3731 10.4527 36.6923 10.1342C37.0253 9.80188 37.1919 9.37954 37.1919 8.8672C37.1919 8.35486 37.0253 7.94638 36.6923 7.64174C36.3731 7.32326 35.8874 7.16402 35.2352 7.16402H32.2377V10.6119Z" fill="#FAF8FB"/>
<path d="M45.6912 19.481C44.8863 19.481 44.1716 19.3009 43.5471 18.9409C42.9366 18.5671 42.4578 18.0339 42.1109 17.3416C41.7778 16.6354 41.6113 15.7838 41.6113 14.7868V8.99183C41.6113 8.83951 41.6599 8.71489 41.757 8.61796C41.8541 8.52103 41.9721 8.47256 42.1109 8.47256H44.3173C44.47 8.47256 44.5949 8.52103 44.692 8.61796C44.7891 8.71489 44.8377 8.83951 44.8377 8.99183V14.6622C44.8377 16.2131 45.5177 16.9885 46.8777 16.9885C47.5299 16.9885 48.0433 16.7877 48.418 16.3861C48.8066 15.9707 49.0008 15.3961 49.0008 14.6622V8.99183C49.0008 8.83951 49.0494 8.71489 49.1466 8.61796C49.2437 8.52103 49.3686 8.47256 49.5212 8.47256H51.7277C51.8665 8.47256 51.9844 8.52103 52.0816 8.61796C52.1787 8.71489 52.2273 8.83951 52.2273 8.99183V18.754C52.2273 18.9063 52.1787 19.0309 52.0816 19.1279C51.9844 19.2248 51.8665 19.2733 51.7277 19.2733H49.6878C49.5351 19.2733 49.4102 19.2248 49.3131 19.1279C49.2159 19.0309 49.1674 18.9063 49.1674 18.754V17.9439C48.8066 18.4424 48.3417 18.8232 47.7727 19.0863C47.2038 19.3494 46.5099 19.481 45.6912 19.481Z" fill="#FAF8FB"/>
<path d="M53.9104 19.2733C53.7578 19.2733 53.6329 19.2248 53.5357 19.1279C53.4386 19.0309 53.39 18.9063 53.39 18.754V5.04542C53.39 4.8931 53.4386 4.76848 53.5357 4.67155C53.6329 4.57462 53.7578 4.52616 53.9104 4.52616H55.9503C56.0891 4.52616 56.2071 4.57462 56.3042 4.67155C56.4014 4.76848 56.4499 4.8931 56.4499 5.04542V12.0659L59.6555 8.82566C59.7665 8.72873 59.8637 8.64565 59.947 8.57642C60.0441 8.50718 60.1898 8.47256 60.3841 8.47256H62.7363C62.875 8.47256 62.986 8.52103 63.0693 8.61796C63.1526 8.70104 63.1942 8.80489 63.1942 8.92952C63.1942 8.9849 63.1803 9.04721 63.1526 9.11645C63.1248 9.18569 63.0762 9.24107 63.0069 9.28261L58.9894 13.3121L63.5272 18.484C63.6521 18.5947 63.7146 18.7055 63.7146 18.8163C63.7146 18.9409 63.666 19.0517 63.5689 19.1486C63.4856 19.2317 63.3815 19.2733 63.2566 19.2733H60.842C60.6339 19.2733 60.4812 19.2386 60.3841 19.1694C60.3008 19.1002 60.2037 19.0171 60.0927 18.9202L56.4499 14.8491V18.754C56.4499 18.9063 56.4014 19.0309 56.3042 19.1279C56.2071 19.2248 56.0891 19.2733 55.9503 19.2733H53.9104Z" fill="#FAF8FB"/>
<path d="M66.7046 19.481C65.9691 19.481 65.3099 19.3425 64.7271 19.0655C64.1442 18.7748 63.6794 18.387 63.3324 17.9024C62.9855 17.4177 62.812 16.8777 62.812 16.2823C62.812 15.2992 63.2075 14.5237 63.9985 13.956C64.8034 13.3883 65.8581 13.0005 67.1625 12.7928L69.8894 12.3982V12.0243C69.8894 11.4843 69.7645 11.0689 69.5147 10.7781C69.2649 10.4873 68.8278 10.3419 68.2033 10.3419C67.7453 10.3419 67.3776 10.4319 67.1001 10.6119C66.8225 10.7919 66.6074 11.0273 66.4548 11.3181C66.3438 11.4981 66.1842 11.5881 65.976 11.5881H63.9985C63.8459 11.5881 63.7279 11.5466 63.6447 11.4635C63.5614 11.3666 63.5267 11.2558 63.5406 11.1312C63.5406 10.8958 63.6308 10.6189 63.8112 10.3004C63.9916 9.98189 64.2691 9.67033 64.6438 9.3657C65.0185 9.04722 65.4973 8.78412 66.0801 8.57642C66.6629 8.36871 67.3776 8.26486 68.2241 8.26486C69.0984 8.26486 69.8477 8.36871 70.4722 8.57642C71.0967 8.78412 71.5962 9.07491 71.9709 9.44878C72.3456 9.82265 72.6231 10.2588 72.8035 10.7573C72.9839 11.242 73.0742 11.7682 73.0742 12.3359V18.754C73.0742 18.9063 73.0256 19.0309 72.9284 19.1279C72.8313 19.2248 72.7064 19.2733 72.5538 19.2733H70.5138C70.375 19.2733 70.2571 19.2248 70.16 19.1279C70.0628 19.0309 70.0142 18.9063 70.0142 18.754V17.9855C69.8338 18.2486 69.591 18.4978 69.2857 18.7332C68.9804 18.9548 68.6127 19.1348 68.1825 19.2733C67.7662 19.4117 67.2735 19.481 66.7046 19.481ZM67.5372 17.3208C67.9951 17.3208 68.4045 17.2239 68.7653 17.03C69.1261 16.8362 69.4106 16.5385 69.6188 16.1369C69.8269 15.7353 69.931 15.2299 69.931 14.6206V14.2675L67.9951 14.5791C67.2458 14.7037 66.6976 14.8907 66.3507 15.1399C66.0038 15.3892 65.8303 15.6938 65.8303 16.0538C65.8303 16.3169 65.9066 16.5454 66.0593 16.7392C66.2258 16.9331 66.4409 17.0785 66.7046 17.1754C66.9682 17.2724 67.2458 17.3208 67.5372 17.3208Z" fill="#FAF8FB"/>
<path d="M80.4237 19.481C79.6327 19.481 78.9735 19.3494 78.4462 19.0863C77.9189 18.8094 77.4887 18.4632 77.1556 18.0478V18.754C77.1556 18.9063 77.1071 19.0309 77.0099 19.1279C76.9128 19.2248 76.7879 19.2733 76.6352 19.2733H74.6578C74.5051 19.2733 74.3802 19.2248 74.2831 19.1279C74.1859 19.0309 74.1374 18.9063 74.1374 18.754V5.04542C74.1374 4.8931 74.1859 4.76848 74.2831 4.67155C74.3802 4.57462 74.5051 4.52616 74.6578 4.52616H76.8018C76.9405 4.52616 77.0585 4.57462 77.1556 4.67155C77.2528 4.76848 77.3014 4.8931 77.3014 5.04542V9.5734C77.6483 9.18569 78.0785 8.87413 78.5919 8.63873C79.1054 8.38948 79.716 8.26486 80.4237 8.26486C81.1453 8.26486 81.7698 8.38948 82.2971 8.63873C82.8383 8.87413 83.2963 9.21338 83.6709 9.65648C84.0456 10.0857 84.3301 10.5981 84.5244 11.1935C84.7325 11.7889 84.8436 12.4467 84.8574 13.1667C84.8713 13.416 84.8782 13.6514 84.8782 13.8729C84.8782 14.0806 84.8713 14.316 84.8574 14.5791C84.8297 15.313 84.7117 15.9846 84.5036 16.5938C84.3093 17.1893 84.0248 17.7085 83.6501 18.1516C83.2893 18.5809 82.8383 18.9132 82.2971 19.1486C81.7698 19.3702 81.1453 19.481 80.4237 19.481ZM79.487 16.9885C80.0143 16.9885 80.4306 16.8777 80.7359 16.6562C81.0412 16.4208 81.2563 16.1161 81.3812 15.7423C81.52 15.3684 81.6033 14.9599 81.631 14.5168C81.6588 14.0875 81.6588 13.6583 81.631 13.229C81.6033 12.7859 81.52 12.3774 81.3812 12.0036C81.2563 11.6297 81.0412 11.332 80.7359 11.1104C80.4306 10.875 80.0143 10.7573 79.487 10.7573C78.9874 10.7573 78.578 10.8681 78.2589 11.0897C77.9536 11.3112 77.7177 11.5951 77.5511 11.9412C77.3985 12.2736 77.3152 12.6336 77.3014 13.0213C77.2875 13.2706 77.2805 13.5267 77.2805 13.7898C77.2805 14.0529 77.2875 14.316 77.3014 14.5791C77.3291 14.9945 77.4124 15.3822 77.5511 15.7423C77.6899 16.1023 77.9189 16.4 78.2381 16.6354C78.5572 16.8708 78.9735 16.9885 79.487 16.9885Z" fill="#FAF8FB"/>
<path d="M86.1495 19.2733C85.9968 19.2733 85.8719 19.2248 85.7748 19.1279C85.6776 19.0309 85.6291 18.9063 85.6291 18.754V5.04542C85.6291 4.8931 85.6776 4.76848 85.7748 4.67155C85.8719 4.57462 85.9968 4.52616 86.1495 4.52616H88.231C88.3698 4.52616 88.4878 4.57462 88.5849 4.67155C88.682 4.76848 88.7306 4.8931 88.7306 5.04542V18.754C88.7306 18.9063 88.682 19.0309 88.5849 19.1279C88.4878 19.2248 88.3698 19.2733 88.231 19.2733H86.1495Z" fill="#FAF8FB"/>
<path d="M94.7336 19.481C93.1378 19.481 91.868 19.0379 90.9244 18.1516C89.9946 17.2654 89.502 15.9777 89.4465 14.2883C89.4465 14.1775 89.4465 14.0321 89.4465 13.8521C89.4465 13.6583 89.4465 13.506 89.4465 13.3952C89.502 12.329 89.7448 11.4151 90.175 10.6535C90.6052 9.87804 91.2089 9.28954 91.986 8.88798C92.7631 8.47256 93.672 8.26486 94.7128 8.26486C95.8785 8.26486 96.8499 8.50718 97.627 8.99183C98.418 9.46263 99.0078 10.1134 99.3964 10.9443C99.7988 11.7612 100 12.7028 100 13.7691V14.2468C100 14.3852 99.9445 14.5029 99.8335 14.5999C99.7363 14.6968 99.6184 14.7453 99.4796 14.7453H92.6729C92.6729 14.7591 92.6729 14.7868 92.6729 14.8284C92.6729 14.856 92.6729 14.8837 92.6729 14.9114C92.6868 15.3545 92.77 15.763 92.9227 16.1369C93.0892 16.4969 93.3182 16.7877 93.6096 17.0093C93.9149 17.2308 94.2757 17.3416 94.692 17.3416C95.0389 17.3416 95.3234 17.2931 95.5455 17.1962C95.7675 17.0993 95.9479 16.9816 96.0867 16.8431C96.2393 16.7046 96.3503 16.5869 96.4197 16.49C96.5446 16.3515 96.6417 16.2684 96.7111 16.2407C96.7944 16.1992 96.9193 16.1784 97.0858 16.1784H99.2506C99.3894 16.1784 99.5004 16.22 99.5837 16.3031C99.6808 16.3723 99.7225 16.4762 99.7086 16.6146C99.6947 16.8362 99.5767 17.1131 99.3547 17.4454C99.1466 17.7639 98.8343 18.0824 98.418 18.4009C98.0017 18.7055 97.4813 18.9617 96.8568 19.1694C96.2462 19.3771 95.5385 19.481 94.7336 19.481ZM92.6729 12.8552H96.7528V12.8136C96.7528 12.3151 96.6695 11.8859 96.503 11.5258C96.3503 11.152 96.1214 10.8612 95.8161 10.6535C95.5108 10.4458 95.143 10.3419 94.7128 10.3419C94.2826 10.3419 93.9149 10.4458 93.6096 10.6535C93.3043 10.8612 93.0684 11.152 92.9019 11.5258C92.7492 11.8859 92.6729 12.3151 92.6729 12.8136V12.8552Z" fill="#FAF8FB"/>
<path d="M10.5797 17.206C10.5797 14.5541 12.7295 12.4043 15.3813 12.4043H19.6567C22.0601 12.4043 24.0083 14.3525 24.0083 16.7559C24.0083 20.7613 20.7613 24.0083 16.7559 24.0083H10.5797V17.206Z" fill="#FAF8FB"/>
<path d="M10.5797 0H16.7557C20.7613 0 24.0083 3.24706 24.0083 7.25251C24.0083 9.65578 22.0601 11.604 19.6567 11.604H15.3813C12.7295 11.604 10.5797 9.45423 10.5797 6.80236V0Z" fill="#FAF8FB"/>
<path d="M0 0H9.77939V24.0083H0V0Z" fill="#FAF8FB"/>
</svg>
